<svg width="639" height="201" viewBox="0 0 639 201" fill="none" xmlns="http://www.w3.org/2000/svg">
<path d="M68.0534 149.476C62.9854 149.476 60.4094 146.732 60.0734 143.092L62.7614 142.7C63.1254 145.192 64.6374 147.376 68.1374 147.376C70.2934 147.376 72.5614 146.452 72.5614 143.876C72.5614 141.524 71.1054 140.768 68.7814 140.292L65.8974 139.704C63.0694 139.116 60.9134 137.632 60.9134 134.216C60.9134 130.884 63.6014 128.644 67.8294 128.644C71.7774 128.644 74.8014 130.408 75.1934 134.3L72.5334 134.86C72.1974 132.2 70.7134 130.744 67.7734 130.744C65.3374 130.744 63.6574 131.948 63.6574 133.964C63.6574 135.896 64.6934 136.904 66.9054 137.38L69.8174 137.996C72.8974 138.64 75.3054 140.012 75.3054 143.624C75.3054 146.704 73.0094 149.476 68.0534 149.476ZM83.2592 149.224C80.2352 149.224 79.4512 147.404 79.4512 144.8V136.96H76.8472V135H79.4512V131.388L81.8312 130.38V135H85.3312V136.96H81.8312V144.716C81.8312 146.312 82.4472 146.984 83.8752 146.984C84.4912 146.984 84.8552 146.9 85.3312 146.788V148.972C84.7152 149.14 84.1552 149.224 83.2592 149.224ZM91.6318 149.336C88.7758 149.336 86.8998 147.712 86.8998 145.22C86.8998 143.82 87.5998 142.616 88.8598 141.916C89.9238 141.384 91.2678 141.048 93.5638 140.768L96.1678 140.46V140.236C96.1678 137.66 95.2438 136.624 93.0878 136.624C91.1838 136.624 90.0078 137.632 89.8958 139.396H87.3478C87.5438 136.54 89.7838 134.664 93.0598 134.664C96.8958 134.664 98.5758 136.4 98.5758 140.488V144.268C98.5758 146.424 98.7158 147.908 99.0518 149H96.5598C96.4478 148.272 96.3638 147.348 96.3358 146.452C95.6918 148.244 93.9278 149.336 91.6318 149.336ZM92.1638 147.376C94.5998 147.376 96.1958 145.612 96.1958 142.896V142.196L92.3878 142.756C90.3158 143.064 89.4198 143.792 89.4198 145.164C89.4198 146.536 90.4558 147.376 92.1638 147.376ZM106.339 149.224C103.315 149.224 102.531 147.404 102.531 144.8V136.96H99.9275V135H102.531V131.388L104.911 130.38V135H108.411V136.96H104.911V144.716C104.911 146.312 105.527 146.984 106.955 146.984C107.571 146.984 107.935 146.9 108.411 146.788V148.972C107.795 149.14 107.235 149.224 106.339 149.224ZM116.063 149.336C112.059 149.336 109.679 146.788 109.679 142.168C109.679 137.492 112.031 134.664 116.035 134.664C119.815 134.664 121.999 136.82 121.999 141.02V142.7H112.059C112.087 145.444 113.739 147.236 116.231 147.236C118.023 147.236 119.339 146.284 119.955 144.576L121.915 145.444C120.935 147.992 118.891 149.336 116.063 149.336ZM112.059 140.768H119.591V140.46C119.591 137.884 118.275 136.54 115.979 136.54C113.515 136.54 112.115 138.136 112.059 140.768ZM129.725 149.336C126.421 149.336 124.181 147.796 123.705 145.024L126.113 144.604C126.449 146.396 127.765 147.404 129.809 147.404C131.685 147.404 132.721 146.48 132.721 145.248C132.721 144.016 131.965 143.512 130.705 143.288L127.961 142.784C125.581 142.336 124.237 140.992 124.237 138.864C124.237 136.456 126.253 134.664 129.557 134.664C132.693 134.664 134.821 136.092 135.101 138.444L132.749 138.976C132.441 137.576 131.349 136.596 129.445 136.596C127.653 136.596 126.561 137.38 126.561 138.752C126.561 139.928 127.345 140.488 128.717 140.74L131.433 141.244C133.953 141.72 135.073 143.008 135.073 145.052C135.073 147.572 133.141 149.336 129.725 149.336ZM149.183 149.336C145.235 149.336 142.659 146.564 142.659 142C142.659 137.436 145.235 134.664 149.183 134.664C153.131 134.664 155.707 137.436 155.707 142C155.707 146.564 153.131 149.336 149.183 149.336ZM149.183 147.264C151.703 147.264 153.187 145.472 153.187 142C153.187 138.528 151.703 136.736 149.183 136.736C146.663 136.736 145.179 138.528 145.179 142C145.179 145.472 146.663 147.264 149.183 147.264ZM158.892 149V136.96H156.316V135H158.892V132.788C158.892 130.24 160.488 128.532 162.98 128.532C163.652 128.532 164.24 128.588 164.772 128.728V130.772C164.268 130.688 163.736 130.632 163.288 130.632C161.86 130.632 161.272 131.416 161.272 133.124V135H164.772V136.96H161.272V149H158.892ZM180.593 149.476C174.433 149.476 171.633 144.772 171.633 139.004C171.633 132.9 174.769 128.644 180.677 128.644C185.521 128.644 188.041 131.5 188.545 135.616L185.829 135.896C185.437 132.872 183.617 130.884 180.537 130.884C176.645 130.884 174.433 134.132 174.433 138.976C174.433 143.68 176.533 147.236 180.593 147.236C183.421 147.236 185.409 145.332 185.969 142.308L188.545 142.756C187.789 146.508 185.381 149.476 180.593 149.476ZM191.492 149V128.7H193.872V137.632C194.712 135.672 196.28 134.664 198.464 134.664C201.488 134.664 203.084 136.596 203.084 140.292V149H200.704V140.46C200.704 137.996 199.668 136.708 197.652 136.708C195.244 136.708 193.872 138.528 193.872 141.692V149H191.492ZM210.205 149.336C207.349 149.336 205.473 147.712 205.473 145.22C205.473 143.82 206.173 142.616 207.433 141.916C208.497 141.384 209.841 141.048 212.137 140.768L214.741 140.46V140.236C214.741 137.66 213.817 136.624 211.661 136.624C209.757 136.624 208.581 137.632 208.469 139.396H205.921C206.117 136.54 208.357 134.664 211.633 134.664C215.469 134.664 217.149 136.4 217.149 140.488V144.268C217.149 146.424 217.289 147.908 217.625 149H215.133C215.021 148.272 214.937 147.348 214.909 146.452C214.265 148.244 212.501 149.336 210.205 149.336ZM210.737 147.376C213.173 147.376 214.769 145.612 214.769 142.896V142.196L210.961 142.756C208.889 143.064 207.993 143.792 207.993 145.164C207.993 146.536 209.029 147.376 210.737 147.376ZM220.424 149V135H222.664V137.772C223.588 135.672 225.128 134.664 227.34 134.664C230.42 134.664 232.016 136.568 232.016 140.292V149H229.636V140.432C229.636 137.968 228.6 136.708 226.556 136.708C224.232 136.708 222.804 138.584 222.804 141.692V149H220.424ZM240.425 154.796C235.497 154.796 234.125 152.948 234.125 150.96C234.125 149.644 234.909 148.524 236.393 148.048C235.217 147.516 234.769 146.62 234.769 145.612C234.769 144.212 235.581 143.26 236.757 142.812C235.861 141.944 235.385 140.768 235.385 139.396C235.385 136.68 237.317 134.664 240.565 134.664C241.629 134.664 242.525 134.888 243.309 135.252C243.729 133.824 244.765 132.704 246.641 132.704C246.949 132.704 247.257 132.732 247.565 132.816V134.888C247.285 134.832 246.949 134.776 246.557 134.776C245.493 134.776 244.793 135.196 244.457 136.092C245.297 136.932 245.745 138.08 245.745 139.396C245.745 142.112 243.813 144.184 240.565 144.184C239.529 144.184 238.633 143.96 237.877 143.596C237.289 143.848 236.869 144.324 236.869 144.968C236.869 145.752 237.457 146.396 239.193 146.396H242.609C245.773 146.396 247.369 147.824 247.369 150.344C247.369 152.976 245.297 154.796 240.425 154.796ZM240.565 142.364C242.357 142.364 243.505 141.132 243.505 139.424C243.505 137.716 242.357 136.484 240.565 136.484C238.773 136.484 237.625 137.688 237.625 139.396C237.625 141.104 238.773 142.364 240.565 142.364ZM236.449 150.54C236.449 152.276 238.185 152.836 240.705 152.836C244.121 152.836 244.989 151.772 244.989 150.512C244.989 149.196 244.009 148.496 242.077 148.496H239.109C238.689 148.496 238.297 148.468 237.933 148.44C236.925 148.888 236.449 149.7 236.449 150.54ZM254.79 149.336C250.786 149.336 248.406 146.788 248.406 142.168C248.406 137.492 250.758 134.664 254.762 134.664C258.542 134.664 260.726 136.82 260.726 141.02V142.7H250.786C250.814 145.444 252.466 147.236 254.958 147.236C256.75 147.236 258.066 146.284 258.682 144.576L260.642 145.444C259.662 147.992 257.618 149.336 254.79 149.336ZM250.786 140.768H258.318V140.46C258.318 137.884 257.002 136.54 254.706 136.54C252.242 136.54 250.842 138.136 250.786 140.768ZM268.711 146.928C270.307 145.752 272.827 143.736 275.319 141.356C277.783 138.864 278.623 137.184 278.623 134.748C278.623 132.256 277.307 130.828 275.067 130.828C272.799 130.828 271.427 132.284 271.427 134.524C271.427 135.028 271.511 135.616 271.651 136.316L269.131 136.064C268.991 135.504 268.935 135 268.935 134.496C268.935 130.94 271.287 128.644 275.207 128.644C278.987 128.644 281.255 130.8 281.255 134.72C281.255 137.548 279.883 140.012 276.887 142.896C275.375 144.296 274.003 145.416 272.099 146.732H281.479V149H268.711V146.928ZM291.446 149.476C286.518 149.476 283.942 145.416 283.942 139.004C283.942 132.648 286.518 128.644 291.446 128.644C296.374 128.644 298.95 132.648 298.95 139.004C298.95 145.416 296.374 149.476 291.446 149.476ZM291.446 147.376C294.806 147.376 296.43 144.128 296.43 139.004C296.43 133.936 294.806 130.744 291.446 130.744C288.086 130.744 286.462 133.936 286.462 139.004C286.462 144.128 288.086 147.376 291.446 147.376ZM301.361 146.928C302.957 145.752 305.477 143.736 307.969 141.356C310.433 138.864 311.273 137.184 311.273 134.748C311.273 132.256 309.957 130.828 307.717 130.828C305.449 130.828 304.077 132.284 304.077 134.524C304.077 135.028 304.161 135.616 304.301 136.316L301.781 136.064C301.641 135.504 301.585 135 301.585 134.496C301.585 130.94 303.937 128.644 307.857 128.644C311.637 128.644 313.905 130.8 313.905 134.72C313.905 137.548 312.533 140.012 309.537 142.896C308.025 144.296 306.653 145.416 304.749 146.732H314.129V149H301.361V146.928ZM323.911 149V143.792H314.783V142.084L323.491 129.12H326.291V141.832H329.483V143.792H326.291V149H323.911ZM317.331 141.832H323.911V134.552C323.911 132.984 323.911 132.592 323.967 131.584H323.911C323.547 132.508 323.155 133.124 322.511 134.132L319.179 139.284C318.423 140.432 317.947 141.104 317.331 141.832ZM339.571 128.7V149H337.191V128.7H339.571ZM346.827 149.336C343.971 149.336 342.095 147.712 342.095 145.22C342.095 143.82 342.795 142.616 344.055 141.916C345.119 141.384 346.463 141.048 348.759 140.768L351.363 140.46V140.236C351.363 137.66 350.439 136.624 348.283 136.624C346.379 136.624 345.203 137.632 345.091 139.396H342.543C342.739 136.54 344.979 134.664 348.255 134.664C352.091 134.664 353.771 136.4 353.771 140.488V144.268C353.771 146.424 353.911 147.908 354.247 149H351.755C351.643 148.272 351.559 147.348 351.531 146.452C350.887 148.244 349.123 149.336 346.827 149.336ZM347.359 147.376C349.795 147.376 351.391 145.612 351.391 142.896V142.196L347.583 142.756C345.511 143.064 344.615 143.792 344.615 145.164C344.615 146.536 345.651 147.376 347.359 147.376ZM361.638 149.336C358.11 149.336 356.85 147.208 356.85 143.932V135H359.23V143.652C359.23 146.004 360.238 147.292 362.086 147.292C364.326 147.292 365.838 145.388 365.838 142.532V135H368.218V149H365.978V146.368C365.334 148.076 363.598 149.336 361.638 149.336ZM371.566 149V135H373.806V137.772C374.73 135.672 376.27 134.664 378.482 134.664C381.562 134.664 383.158 136.568 383.158 140.292V149H380.778V140.432C380.778 137.968 379.742 136.708 377.698 136.708C375.374 136.708 373.946 138.584 373.946 141.692V149H371.566ZM392.069 149.336C388.149 149.336 385.629 146.48 385.629 142C385.629 137.436 388.093 134.664 392.069 134.664C395.345 134.664 397.473 136.54 397.837 139.76L395.401 140.04C395.149 137.912 393.917 136.736 392.013 136.736C389.605 136.736 388.149 138.696 388.149 141.972C388.149 145.332 389.605 147.264 392.097 147.264C394.001 147.264 395.177 146.116 395.541 143.932L397.809 144.296C397.305 147.488 395.205 149.336 392.069 149.336ZM400.279 149V128.7H402.659V137.632C403.499 135.672 405.067 134.664 407.251 134.664C410.275 134.664 411.871 136.596 411.871 140.292V149H409.491V140.46C409.491 137.996 408.455 136.708 406.439 136.708C404.031 136.708 402.659 138.528 402.659 141.692V149H400.279ZM420.726 149.336C416.722 149.336 414.342 146.788 414.342 142.168C414.342 137.492 416.694 134.664 420.698 134.664C424.478 134.664 426.662 136.82 426.662 141.02V142.7H416.722C416.75 145.444 418.402 147.236 420.894 147.236C422.686 147.236 424.002 146.284 424.618 144.576L426.578 145.444C425.598 147.992 423.554 149.336 420.726 149.336ZM416.722 140.768H424.254V140.46C424.254 137.884 422.938 136.54 420.642 136.54C418.178 136.54 416.778 138.136 416.722 140.768ZM434.387 149.336C431.083 149.336 428.843 147.796 428.367 145.024L430.775 144.604C431.111 146.396 432.427 147.404 434.471 147.404C436.347 147.404 437.383 146.48 437.383 145.248C437.383 144.016 436.627 143.512 435.367 143.288L432.623 142.784C430.243 142.336 428.899 140.992 428.899 138.864C428.899 136.456 430.915 134.664 434.219 134.664C437.355 134.664 439.483 136.092 439.763 138.444L437.411 138.976C437.103 137.576 436.011 136.596 434.107 136.596C432.315 136.596 431.223 137.38 431.223 138.752C431.223 139.928 432.007 140.488 433.379 140.74L436.095 141.244C438.615 141.72 439.735 143.008 439.735 145.052C439.735 147.572 437.803 149.336 434.387 149.336ZM456.982 149.476C451.466 149.476 447.882 145.416 447.882 139.06C447.882 132.564 451.466 128.644 456.982 128.644C462.47 128.644 466.054 132.564 466.054 139.06C466.054 145.5 462.47 149.476 456.982 149.476ZM456.982 147.236C460.958 147.236 463.254 144.128 463.254 139.06C463.254 133.964 460.958 130.884 456.982 130.884C453.006 130.884 450.682 133.964 450.682 139.06C450.682 144.044 453.006 147.236 456.982 147.236ZM474.572 149.336C470.652 149.336 468.132 146.48 468.132 142C468.132 137.436 470.596 134.664 474.572 134.664C477.848 134.664 479.976 136.54 480.34 139.76L477.904 140.04C477.652 137.912 476.42 136.736 474.516 136.736C472.108 136.736 470.652 138.696 470.652 141.972C470.652 145.332 472.108 147.264 474.6 147.264C476.504 147.264 477.68 146.116 478.044 143.932L480.312 144.296C479.808 147.488 477.708 149.336 474.572 149.336ZM487.599 149.224C484.575 149.224 483.791 147.404 483.791 144.8V136.96H481.187V135H483.791V131.388L486.171 130.38V135H489.671V136.96H486.171V144.716C486.171 146.312 486.787 146.984 488.215 146.984C488.831 146.984 489.195 146.9 489.671 146.788V148.972C489.055 149.14 488.495 149.224 487.599 149.224ZM497.463 149.336C493.515 149.336 490.939 146.564 490.939 142C490.939 137.436 493.515 134.664 497.463 134.664C501.411 134.664 503.987 137.436 503.987 142C503.987 146.564 501.411 149.336 497.463 149.336ZM497.463 147.264C499.983 147.264 501.467 145.472 501.467 142C501.467 138.528 499.983 136.736 497.463 136.736C494.943 136.736 493.459 138.528 493.459 142C493.459 145.472 494.943 147.264 497.463 147.264ZM513.21 149.336C511.082 149.336 509.486 148.216 508.758 146.592L508.338 149H506.518V128.7H508.898V137.436C509.626 135.868 511.166 134.664 513.35 134.664C516.766 134.664 518.978 137.716 518.978 142C518.978 146.368 516.71 149.336 513.21 149.336ZM512.566 147.236C515.002 147.236 516.458 145.192 516.458 142C516.458 138.864 515.086 136.764 512.594 136.764C510.242 136.764 508.842 138.64 508.842 141.692V142.42C508.842 145.332 510.214 147.236 512.566 147.236ZM527.048 149.336C523.044 149.336 520.664 146.788 520.664 142.168C520.664 137.492 523.016 134.664 527.02 134.664C530.8 134.664 532.984 136.82 532.984 141.02V142.7H523.044C523.072 145.444 524.724 147.236 527.216 147.236C529.008 147.236 530.324 146.284 530.94 144.576L532.9 145.444C531.92 147.992 529.876 149.336 527.048 149.336ZM523.044 140.768H530.576V140.46C530.576 137.884 529.26 136.54 526.964 136.54C524.5 136.54 523.1 138.136 523.044 140.768ZM537.717 138.192C538.389 136.232 539.845 134.664 541.973 134.664C542.141 134.664 542.309 134.664 542.477 134.692V137.016H542.365C540.909 137.016 539.957 137.436 539.285 138.108C537.941 139.452 537.885 141.328 537.885 143.008V149H535.505V135H537.717V138.192ZM549.473 146.928C551.069 145.752 553.589 143.736 556.081 141.356C558.545 138.864 559.385 137.184 559.385 134.748C559.385 132.256 558.069 130.828 555.829 130.828C553.561 130.828 552.189 132.284 552.189 134.524C552.189 135.028 552.273 135.616 552.413 136.316L549.893 136.064C549.753 135.504 549.697 135 549.697 134.496C549.697 130.94 552.049 128.644 555.969 128.644C559.749 128.644 562.017 130.8 562.017 134.72C562.017 137.548 560.645 140.012 557.649 142.896C556.137 144.296 554.765 145.416 552.861 146.732H562.241V149H549.473V146.928ZM571.252 149.476C567.864 149.476 565.596 147.488 565.12 144.044L567.64 143.484C567.892 145.78 569.04 147.376 571.28 147.376C574.864 147.376 575.816 144.016 575.844 138.976C574.864 140.656 573.184 141.468 571.14 141.468C567.584 141.468 564.896 139.256 564.896 135.084C564.896 131.388 567.444 128.644 571.392 128.644C576.124 128.644 578.364 132.06 578.364 138.612C578.364 144.716 576.712 149.476 571.252 149.476ZM567.416 135.056C567.416 137.744 569.068 139.368 571.392 139.368C573.492 139.368 575.34 137.772 575.788 135.672C575.536 133.264 574.472 130.744 571.364 130.744C568.984 130.744 567.416 132.48 567.416 135.056Z" fill="black"/>
<path d="M141.796 82.02C134.176 82.02 129.856 77.52 129.856 70.38V66.96L138.256 65.4V70.2C138.256 73.74 139.336 75.72 141.856 75.72C144.256 75.72 145.276 73.92 145.276 71.46V69.72C145.276 67.08 144.856 65.7 142.096 63.96L136.096 60.3C131.716 57.6 130.216 54.48 130.216 49.92V47.76C130.216 40.8 135.316 37.38 141.856 37.38C149.116 37.38 153.676 40.26 153.676 48.3V51.42L145.456 52.98V48.42C145.456 45.54 144.436 43.68 141.856 43.68C139.696 43.68 138.556 45.24 138.556 47.28V49.2C138.556 51.42 139.636 52.98 141.676 54.3L147.676 57.96C152.536 60.96 153.736 63.96 153.736 68.46V71.64C153.736 77.76 149.656 82.02 141.796 82.02ZM163.505 81V45.42H155.405V38.4H179.825V45.42H171.725V81H163.505ZM177.694 81L185.974 38.4H196.774L205.114 81H196.834L195.274 70.98H187.474L185.914 81H177.694ZM188.434 64.98H194.314L192.214 51.48C191.914 49.5 191.734 47.76 191.494 45.42H191.314L190.534 51.48L188.434 64.98ZM211.085 81V45.42H202.985V38.4H227.405V45.42H219.305V81H211.085ZM238.182 74.64H249.702V81H229.902V38.4H249.282V44.76H238.182V55.86H248.382V62.22H238.182V74.64ZM264.233 82.02C256.613 82.02 252.293 77.52 252.293 70.38V66.96L260.693 65.4V70.2C260.693 73.74 261.773 75.72 264.293 75.72C266.693 75.72 267.713 73.92 267.713 71.46V69.72C267.713 67.08 267.293 65.7 264.533 63.96L258.533 60.3C254.153 57.6 252.653 54.48 252.653 49.92V47.76C252.653 40.8 257.753 37.38 264.293 37.38C271.553 37.38 276.113 40.26 276.113 48.3V51.42L267.893 52.98V48.42C267.893 45.54 266.873 43.68 264.293 43.68C262.133 43.68 260.993 45.24 260.993 47.28V49.2C260.993 51.42 262.073 52.98 264.113 54.3L270.113 57.96C274.973 60.96 276.173 63.96 276.173 68.46V71.64C276.173 77.76 272.093 82.02 264.233 82.02ZM300.48 82.02C292.38 82.02 287.58 77.22 287.58 68.58V50.82C287.58 42.18 292.38 37.38 300.48 37.38C308.64 37.38 313.38 42.18 313.38 50.82V68.58C313.38 77.22 308.64 82.02 300.48 82.02ZM300.48 75.54C303.3 75.54 304.92 73.44 304.92 69.54V49.86C304.92 45.96 303.3 43.86 300.48 43.86C297.66 43.86 296.1 45.96 296.1 49.86V69.54C296.1 73.38 297.66 75.54 300.48 75.54ZM325.726 81H317.446V38.4H336.826V44.82H325.726V55.98H335.926V62.34H325.726V81ZM360.034 82.02C351.934 82.02 347.554 77.58 347.554 68.7V50.58C347.554 41.94 352.114 37.38 360.214 37.38C367.954 37.38 372.334 41.22 372.334 49.02V53.34L363.814 54.96V49.26C363.814 45.66 362.614 43.86 360.094 43.86C357.454 43.86 356.074 45.72 356.074 49.86V69.18C356.074 73.38 357.454 75.54 360.094 75.54C362.554 75.54 363.874 73.68 363.874 70.14V63.78L372.334 65.52V70.14C372.334 77.88 367.714 82.02 360.034 82.02ZM400.55 38.4V81H392.27V62.46H384.47V81H376.19V38.4H384.47V56.1H392.27V38.4H400.55ZM402.647 81L410.927 38.4H421.727L430.067 81H421.787L420.227 70.98H412.427L410.867 81H402.647ZM413.387 64.98H419.267L417.167 51.48C416.867 49.5 416.687 47.76 416.447 45.42H416.267L415.487 51.48L413.387 64.98ZM432.149 81V38.4H440.969L448.229 59.28C448.889 61.44 449.489 63.54 449.969 65.7H450.089C449.909 62.52 449.789 59.4 449.789 56.16V38.4H457.049V81H449.069L441.209 58.38C440.369 55.86 439.769 53.88 439.289 51.66H439.109C439.349 54.42 439.469 57.06 439.469 60V81H432.149ZM471.134 82.02C464.594 82.02 461.114 77.16 461.114 68.52V51.48C461.114 42.54 465.674 37.38 473.894 37.38C481.574 37.38 485.894 41.46 485.894 48.42V51.72L477.434 53.22V48.66C477.434 45.36 476.294 43.56 473.774 43.56C471.014 43.56 469.634 45.84 469.634 50.28V68.82C469.634 73.08 471.014 75.54 473.954 75.54C476.894 75.54 478.094 73.02 478.094 69.42V64.02H473.294V57.72H485.954V81H480.014L479.594 74.94C478.634 79.2 475.754 82.02 471.134 82.02ZM498.556 74.64H510.076V81H490.276V38.4H509.656V44.76H498.556V55.86H508.756V62.22H498.556V74.64Z" fill="black"/>
</svg>
